<?xml version="1.0" encoding="UTF-8" standalone="no"?>
<!DOCTYPE svg PUBLIC "-//W3C//DTD SVG 1.1//EN" "http://www.w3.org/Graphics/SVG/1.1/DTD/svg11.dtd">
<svg xmlns="http://www.w3.org/2000/svg" version="1.1" viewBox="0.00 0.00 394.00 396.00">
<path fill="#3c55cb" d="
  M 359.35 107.41
  C 324.39 43.25 256.13 6.34 183.63 11.15
  C 143.74 13.80 101.66 31.57 72.68 58.68
  C 57.14 73.22 45.02 88.73 34.79 107.24
  A 0.88 0.87 -75.3 0 1 34.03 107.69
  L 24.49 107.67
  A 0.52 0.51 -75.8 0 1 24.04 106.91
  C 47.03 64.29 82.97 32.15 128.15 15.19
  C 185.02 -6.16 248.08 0.19 299.48 31.60
  Q 344.45 59.08 370.14 107.38
  A 0.21 0.21 0.0 0 1 369.95 107.69
  L 359.76 107.65
  A 0.47 0.46 -13.8 0 1 359.35 107.41
  Z"
/>
<path fill="#3c55cb" d="
  M 54.07 242.85
  Q 54.42 242.29 54.69 241.48
  Q 71.96 189.40 88.89 137.28
  A 0.40 0.40 0.0 0 1 89.27 137.00
  L 103.98 137.01
  Q 104.84 137.01 104.55 137.83
  L 62.37 258.72
  A 0.43 0.42 9.7 0 1 61.97 259.00
  L 44.54 258.98
  A 0.47 0.45 80.0 0 1 44.11 258.67
  Q 23.28 198.73 2.25 138.78
  Q 1.98 138.01 2.22 137.69
  A 1.63 0.73 -58.7 0 1 3.25 136.98
  L 17.98 137.00
  A 1.24 1.23 80.8 0 1 19.15 137.85
  L 53.41 242.79
  A 0.37 0.36 -38.7 0 0 54.07 242.85
  Z"
/>
<rect fill="#3c55cb" x="137.99" y="137.01" width="14.38" height="121.98" rx="0.59"/>
<path fill="#3c55cb" d="
  M 236.00 150.18
  L 236.00 258.48
  A 0.51 0.51 0.0 0 1 235.49 258.99
  L 222.09 259.00
  A 0.51 0.51 0.0 0 1 221.58 258.49
  L 221.56 150.20
  A 0.51 0.51 0.0 0 0 221.05 149.69
  L 181.17 149.64
  A 0.51 0.51 0.0 0 1 180.66 149.13
  L 180.64 137.51
  A 0.51 0.51 0.0 0 1 181.15 137.00
  L 276.49 137.01
  A 0.51 0.51 0.0 0 1 277.00 137.52
  L 276.98 149.14
  A 0.51 0.51 0.0 0 1 276.47 149.65
  L 236.51 149.67
  A 0.51 0.51 0.0 0 0 236.00 150.18
  Z"
/>
<path fill="#3c55cb" d="
  M 365.06 223.67
  L 314.95 223.67
  A 0.47 0.47 0.0 0 0 314.51 223.99
  L 302.42 258.68
  A 0.47 0.47 0.0 0 1 301.98 259.00
  L 289.63 258.98
  A 0.47 0.47 0.0 0 1 289.18 258.35
  L 332.28 137.31
  A 0.47 0.47 0.0 0 1 332.72 137.00
  L 348.58 136.99
  A 0.47 0.47 0.0 0 1 349.02 137.30
  L 392.08 258.35
  A 0.47 0.47 0.0 0 1 391.63 258.98
  L 378.03 258.99
  A 0.47 0.47 0.0 0 1 377.59 258.67
  L 365.50 223.99
  A 0.47 0.47 0.0 0 0 365.06 223.67
  Z
  M 319.21 210.10
  A 0.62 0.62 0.0 0 0 319.79 210.92
  L 360.13 210.92
  A 0.62 0.62 0.0 0 0 360.71 210.10
  L 340.55 152.24
  A 0.62 0.62 0.0 0 0 339.37 152.24
  L 319.21 210.10
  Z"
/>
<path fill="#3c55cb" d="
  M 38.08 294.68
  C 66.32 342.24 114.24 374.89 169.01 382.99
  C 187.76 385.76 206.01 386.13 226.24 382.71
  Q 257.48 377.43 282.03 364.44
  Q 332.10 337.96 359.40 288.54
  Q 359.52 288.32 359.77 288.32
  L 370.02 288.35
  A 0.19 0.18 -76.1 0 1 370.18 288.62
  C 340.99 342.53 292.28 378.97 232.35 390.06
  C 200.74 395.91 170.12 393.78 139.59 384.72
  C 89.76 369.93 49.16 335.13 24.48 289.71
  Q 23.76 288.38 25.27 288.37
  L 33.01 288.32
  Q 34.69 288.31 35.45 289.81
  Q 36.99 292.86 38.08 294.68
  Z"
/>
</svg>
