<svg id="visual" viewBox="0 0 1920 1080" width="1920" height="1080" xmlns="http://www.w3.org/2000/svg" xmlns:xlink="http://www.w3.org/1999/xlink" version="1.1"><rect x="0" y="0" width="1920" height="1080" fill="#f9f6f1"></rect><defs><linearGradient id="grad1_0" x1="43.8%" y1="0%" x2="100%" y2="100%"><stop offset="14.444444444444446%" stop-color="#fbae3c" stop-opacity="1"></stop><stop offset="85.55555555555554%" stop-color="#fbae3c" stop-opacity="1"></stop></linearGradient></defs><defs><linearGradient id="grad1_1" x1="43.8%" y1="0%" x2="100%" y2="100%"><stop offset="14.444444444444446%" stop-color="#fbae3c" stop-opacity="1"></stop><stop offset="85.55555555555554%" stop-color="#fbc879" stop-opacity="1"></stop></linearGradient></defs><defs><linearGradient id="grad1_2" x1="43.8%" y1="0%" x2="100%" y2="100%"><stop offset="14.444444444444446%" stop-color="#fbe0b4" stop-opacity="1"></stop><stop offset="85.55555555555554%" stop-color="#fbc879" stop-opacity="1"></stop></linearGradient></defs><defs><linearGradient id="grad1_3" x1="43.8%" y1="0%" x2="100%" y2="100%"><stop offset="14.444444444444446%" stop-color="#fbe0b4" stop-opacity="1"></stop><stop offset="85.55555555555554%" stop-color="#f9f6f1" stop-opacity="1"></stop></linearGradient></defs><defs><linearGradient id="grad2_0" x1="0%" y1="0%" x2="56.3%" y2="100%"><stop offset="14.444444444444446%" stop-color="#fbae3c" stop-opacity="1"></stop><stop offset="85.55555555555554%" stop-color="#fbae3c" stop-opacity="1"></stop></linearGradient></defs><defs><linearGradient id="grad2_1" x1="0%" y1="0%" x2="56.3%" y2="100%"><stop offset="14.444444444444446%" stop-color="#fbc879" stop-opacity="1"></stop><stop offset="85.55555555555554%" stop-color="#fbae3c" stop-opacity="1"></stop></linearGradient></defs><defs><linearGradient id="grad2_2" x1="0%" y1="0%" x2="56.3%" y2="100%"><stop offset="14.444444444444446%" stop-color="#fbc879" stop-opacity="1"></stop><stop offset="85.55555555555554%" stop-color="#fbe0b4" stop-opacity="1"></stop></linearGradient></defs><defs><linearGradient id="grad2_3" x1="0%" y1="0%" x2="56.3%" y2="100%"><stop offset="14.444444444444446%" stop-color="#f9f6f1" stop-opacity="1"></stop><stop offset="85.55555555555554%" stop-color="#fbe0b4" stop-opacity="1"></stop></linearGradient></defs><g transform="translate(1920, 0)"><path d="M0 972C-119.3 914 -238.7 856 -325.3 785.3C-411.9 714.6 -465.8 631.3 -568.5 568.5C-671.2 505.7 -822.6 463.3 -898 372C-973.4 280.6 -972.7 140.3 -972 0L0 0Z" fill="#faebd2"></path><path d="M0 729C-89.5 685.5 -179 642 -244 589C-308.9 536 -349.4 473.5 -426.4 426.4C-503.4 379.3 -617 347.5 -673.5 279C-730 210.5 -729.5 105.2 -729 0L0 0Z" fill="#fbd497"></path><path d="M0 486C-59.7 457 -119.3 428 -162.6 392.6C-206 357.3 -232.9 315.7 -284.3 284.3C-335.6 252.8 -411.3 231.7 -449 186C-486.7 140.3 -486.3 70.2 -486 0L0 0Z" fill="#fbbb5c"></path><path d="M0 243C-29.8 228.5 -59.7 214 -81.3 196.3C-103 178.7 -116.5 157.8 -142.1 142.1C-167.8 126.4 -205.7 115.8 -224.5 93C-243.3 70.2 -243.2 35.1 -243 0L0 0Z" fill="#fbae3c"></path></g><g transform="translate(0, 1080)"><path d="M0 -972C140.5 -974 280.9 -976 372 -898C463 -820 504.7 -662.1 553.7 -553.7C602.6 -445.2 658.9 -386.3 729.9 -302.3C800.8 -218.3 886.4 -109.1 972 0L0 0Z" fill="#faebd2"></path><path d="M0 -729C105.3 -730.5 210.7 -732 279 -673.5C347.3 -615 378.5 -496.6 415.2 -415.2C452 -333.9 494.2 -289.8 547.4 -226.7C600.6 -163.7 664.8 -81.9 729 0L0 0Z" fill="#fbd497"></path><path d="M0 -486C70.2 -487 140.5 -488 186 -449C231.5 -410 252.3 -331 276.8 -276.8C301.3 -222.6 329.5 -193.2 364.9 -151.2C400.4 -109.1 443.2 -54.6 486 0L0 0Z" fill="#fbbb5c"></path><path d="M0 -243C35.1 -243.5 70.2 -244 93 -224.5C115.8 -205 126.2 -165.5 138.4 -138.4C150.7 -111.3 164.7 -96.6 182.5 -75.6C200.2 -54.6 221.6 -27.3 243 0L0 0Z" fill="#fbae3c"></path></g></svg>