<svg id="visual" viewBox="0 0 1920 1080" width="1920" height="1080" xmlns="http://www.w3.org/2000/svg" xmlns:xlink="http://www.w3.org/1999/xlink" version="1.1"><rect x="0" y="0" width="1920" height="1080" fill="#ffffff"></rect><defs><linearGradient id="grad1_0" x1="43.8%" y1="0%" x2="100%" y2="100%"><stop offset="14.444444444444446%" stop-color="#ffffff" stop-opacity="1"></stop><stop offset="85.55555555555554%" stop-color="#ffffff" stop-opacity="1"></stop></linearGradient></defs><defs><linearGradient id="grad2_0" x1="0%" y1="0%" x2="56.3%" y2="100%"><stop offset="14.444444444444446%" stop-color="#ffffff" stop-opacity="1"></stop><stop offset="85.55555555555554%" stop-color="#ffffff" stop-opacity="1"></stop></linearGradient></defs><g transform="translate(1920, 0)"><path d="M0 702C-103.7 703.4 -207.5 704.8 -268.6 648.6C-329.8 592.3 -348.3 478.3 -411.5 411.5C-474.7 344.8 -582.6 325.2 -638.4 264.4C-694.3 203.7 -698.1 101.9 -702 0L0 0Z" fill="#3c55cb"></path></g><g transform="translate(0, 1080)"><path d="M0 -702C91.1 -691.5 182.2 -681 268.6 -648.6C355.1 -616.2 437 -561.9 491.4 -491.4C545.9 -421 572.8 -334.5 603.3 -249.9C633.8 -165.3 667.9 -82.6 702 0L0 0Z" fill="#3c55cb"></path></g></svg>