<svg id="visual" viewBox="0 0 1920 1080" width="1920" height="1080" xmlns="http://www.w3.org/2000/svg" xmlns:xlink="http://www.w3.org/1999/xlink" version="1.1"><rect x="0" y="0" width="1920" height="1080" fill="#f9f6f1"></rect><defs><linearGradient id="grad1_0" x1="43.8%" y1="0%" x2="100%" y2="100%"><stop offset="14.444444444444446%" stop-color="#fbae3c" stop-opacity="1"></stop><stop offset="85.55555555555554%" stop-color="#fbae3c" stop-opacity="1"></stop></linearGradient></defs><defs><linearGradient id="grad1_1" x1="43.8%" y1="0%" x2="100%" y2="100%"><stop offset="14.444444444444446%" stop-color="#fbae3c" stop-opacity="1"></stop><stop offset="85.55555555555554%" stop-color="#fbc879" stop-opacity="1"></stop></linearGradient></defs><defs><linearGradient id="grad1_2" x1="43.8%" y1="0%" x2="100%" y2="100%"><stop offset="14.444444444444446%" stop-color="#fbe0b4" stop-opacity="1"></stop><stop offset="85.55555555555554%" stop-color="#fbc879" stop-opacity="1"></stop></linearGradient></defs><defs><linearGradient id="grad1_3" x1="43.8%" y1="0%" x2="100%" y2="100%"><stop offset="14.444444444444446%" stop-color="#fbe0b4" stop-opacity="1"></stop><stop offset="85.55555555555554%" stop-color="#f9f6f1" stop-opacity="1"></stop></linearGradient></defs><defs><linearGradient id="grad2_0" x1="0%" y1="0%" x2="56.3%" y2="100%"><stop offset="14.444444444444446%" stop-color="#fbae3c" stop-opacity="1"></stop><stop offset="85.55555555555554%" stop-color="#fbae3c" stop-opacity="1"></stop></linearGradient></defs><defs><linearGradient id="grad2_1" x1="0%" y1="0%" x2="56.3%" y2="100%"><stop offset="14.444444444444446%" stop-color="#fbc879" stop-opacity="1"></stop><stop offset="85.55555555555554%" stop-color="#fbae3c" stop-opacity="1"></stop></linearGradient></defs><defs><linearGradient id="grad2_2" x1="0%" y1="0%" x2="56.3%" y2="100%"><stop offset="14.444444444444446%" stop-color="#fbc879" stop-opacity="1"></stop><stop offset="85.55555555555554%" stop-color="#fbe0b4" stop-opacity="1"></stop></linearGradient></defs><defs><linearGradient id="grad2_3" x1="0%" y1="0%" x2="56.3%" y2="100%"><stop offset="14.444444444444446%" stop-color="#f9f6f1" stop-opacity="1"></stop><stop offset="85.55555555555554%" stop-color="#fbe0b4" stop-opacity="1"></stop></linearGradient></defs><g transform="translate(1920, 0)"><path d="M0 702C-100.8 700.8 -201.7 699.6 -268.6 648.6C-335.6 597.5 -368.8 496.7 -428.5 428.5C-488.2 360.3 -574.5 324.7 -624.5 258.7C-674.6 192.7 -688.3 96.4 -702 0L0 0Z" fill="#faebd2"></path><path d="M0 526.5C-75.6 525.6 -151.2 524.7 -201.5 486.4C-251.7 448.2 -276.6 372.5 -321.4 321.4C-366.2 270.2 -430.9 243.5 -468.4 194C-505.9 144.5 -516.2 72.3 -526.5 0L0 0Z" fill="#fbd497"></path><path d="M0 351C-50.4 350.4 -100.8 349.8 -134.3 324.3C-167.8 298.8 -184.4 248.4 -214.3 214.3C-244.1 180.1 -287.3 162.3 -312.3 129.3C-337.3 96.4 -344.1 48.2 -351 0L0 0Z" fill="#fbbb5c"></path><path d="M0 175.5C-25.2 175.2 -50.4 174.9 -67.2 162.1C-83.9 149.4 -92.2 124.2 -107.1 107.1C-122.1 90.1 -143.6 81.2 -156.1 64.7C-168.6 48.2 -172.1 24.1 -175.5 0L0 0Z" fill="#fbae3c"></path></g><g transform="translate(0, 1080)"><path d="M0 -702C82.2 -670.6 164.5 -639.2 253 -610.7C341.4 -582.2 436.2 -556.6 496.4 -496.4C556.6 -436.2 582.2 -341.4 610.7 -253C639.2 -164.5 670.6 -82.2 702 0L0 0Z" fill="#faebd2"></path><path d="M0 -526.5C61.7 -502.9 123.3 -479.4 189.7 -458C256.1 -436.6 327.2 -417.4 372.3 -372.3C417.4 -327.2 436.6 -256.1 458 -189.7C479.4 -123.3 502.9 -61.7 526.5 0L0 0Z" fill="#fbd497"></path><path d="M0 -351C41.1 -335.3 82.2 -319.6 126.5 -305.3C170.7 -291.1 218.1 -278.3 248.2 -248.2C278.3 -218.1 291.1 -170.7 305.3 -126.5C319.6 -82.2 335.3 -41.1 351 0L0 0Z" fill="#fbbb5c"></path><path d="M0 -175.5C20.6 -167.6 41.1 -159.8 63.2 -152.7C85.4 -145.5 109.1 -139.1 124.1 -124.1C139.1 -109.1 145.5 -85.4 152.7 -63.2C159.8 -41.1 167.6 -20.6 175.5 0L0 0Z" fill="#fbae3c"></path></g></svg>