<svg id="visual" viewBox="0 0 1920 1080" width="1920" height="1080" xmlns="http://www.w3.org/2000/svg" xmlns:xlink="http://www.w3.org/1999/xlink" version="1.1"><rect x="0" y="0" width="1920" height="1080" fill="#e3e0f7"></rect><defs><linearGradient id="grad1_0" x1="43.8%" y1="0%" x2="100%" y2="100%"><stop offset="14.444444444444446%" stop-color="#e3e0f7" stop-opacity="1"></stop><stop offset="85.55555555555554%" stop-color="#e3e0f7" stop-opacity="1"></stop></linearGradient></defs><defs><linearGradient id="grad2_0" x1="0%" y1="0%" x2="56.3%" y2="100%"><stop offset="14.444444444444446%" stop-color="#e3e0f7" stop-opacity="1"></stop><stop offset="85.55555555555554%" stop-color="#e3e0f7" stop-opacity="1"></stop></linearGradient></defs><g transform="translate(1920, 0)"><path d="M0 648C-88.2 636 -176.4 624.1 -240.7 581.1C-305 538.2 -345.5 464.3 -408 408C-470.5 351.7 -555 313 -598.7 248C-642.3 182.9 -645.2 91.5 -648 0L0 0Z" fill="#3c55cb"></path></g><g transform="translate(0, 1080)"><path d="M0 -648C78.3 -630.2 156.6 -612.4 243 -586.7C329.4 -561 424 -527.4 458.2 -458.2C492.4 -389.1 466.2 -284.3 487.8 -202.1C509.4 -119.8 578.7 -59.9 648 0L0 0Z" fill="#3c55cb"></path></g></svg>