<svg id="visual" viewBox="0 0 1920 1080" width="1920" height="1080" xmlns="http://www.w3.org/2000/svg" xmlns:xlink="http://www.w3.org/1999/xlink" version="1.1"><rect x="0" y="0" width="1920" height="1080" fill="#FFFFFF"></rect><defs><linearGradient id="grad1_0" x1="43.8%" y1="0%" x2="100%" y2="100%"><stop offset="14.444444444444446%" stop-color="#3c55cb" stop-opacity="1"></stop><stop offset="85.55555555555554%" stop-color="#3c55cb" stop-opacity="1"></stop></linearGradient></defs><defs><linearGradient id="grad1_1" x1="43.8%" y1="0%" x2="100%" y2="100%"><stop offset="14.444444444444446%" stop-color="#3c55cb" stop-opacity="1"></stop><stop offset="85.55555555555554%" stop-color="#8a8ade" stop-opacity="1"></stop></linearGradient></defs><defs><linearGradient id="grad1_2" x1="43.8%" y1="0%" x2="100%" y2="100%"><stop offset="14.444444444444446%" stop-color="#c7c3ef" stop-opacity="1"></stop><stop offset="85.55555555555554%" stop-color="#8a8ade" stop-opacity="1"></stop></linearGradient></defs><defs><linearGradient id="grad1_3" x1="43.8%" y1="0%" x2="100%" y2="100%"><stop offset="14.444444444444446%" stop-color="#c7c3ef" stop-opacity="1"></stop><stop offset="85.55555555555554%" stop-color="#ffffff" stop-opacity="1"></stop></linearGradient></defs><defs><linearGradient id="grad2_0" x1="0%" y1="0%" x2="56.3%" y2="100%"><stop offset="14.444444444444446%" stop-color="#3c55cb" stop-opacity="1"></stop><stop offset="85.55555555555554%" stop-color="#3c55cb" stop-opacity="1"></stop></linearGradient></defs><defs><linearGradient id="grad2_1" x1="0%" y1="0%" x2="56.3%" y2="100%"><stop offset="14.444444444444446%" stop-color="#8a8ade" stop-opacity="1"></stop><stop offset="85.55555555555554%" stop-color="#3c55cb" stop-opacity="1"></stop></linearGradient></defs><defs><linearGradient id="grad2_2" x1="0%" y1="0%" x2="56.3%" y2="100%"><stop offset="14.444444444444446%" stop-color="#8a8ade" stop-opacity="1"></stop><stop offset="85.55555555555554%" stop-color="#c7c3ef" stop-opacity="1"></stop></linearGradient></defs><defs><linearGradient id="grad2_3" x1="0%" y1="0%" x2="56.3%" y2="100%"><stop offset="14.444444444444446%" stop-color="#ffffff" stop-opacity="1"></stop><stop offset="85.55555555555554%" stop-color="#c7c3ef" stop-opacity="1"></stop></linearGradient></defs><g transform="translate(1920, 0)"><path d="M0 702C-96.6 697.5 -193.3 692.9 -268.6 648.6C-344 604.2 -398 520 -447.6 447.6C-497.2 375.2 -542.2 314.5 -583.9 241.9C-625.5 169.2 -663.8 84.6 -702 0L0 0Z" fill="#e3e0f7"></path><path d="M0 526.5C-72.5 523.1 -145 519.7 -201.5 486.4C-258 453.2 -298.5 390 -335.7 335.7C-372.9 281.4 -406.7 235.9 -437.9 181.4C-469.2 126.9 -497.8 63.5 -526.5 0L0 0Z" fill="#a9a6e6"></path><path d="M0 351C-48.3 348.7 -96.6 346.5 -134.3 324.3C-172 302.1 -199 260 -223.8 223.8C-248.6 187.6 -271.1 157.2 -291.9 120.9C-312.8 84.6 -331.9 42.3 -351 0L0 0Z" fill="#686fd4"></path><path d="M0 175.5C-24.2 174.4 -48.3 173.2 -67.2 162.1C-86 151.1 -99.5 130 -111.9 111.9C-124.3 93.8 -135.6 78.6 -146 60.5C-156.4 42.3 -165.9 21.2 -175.5 0L0 0Z" fill="#3c55cb"></path></g><g transform="translate(0, 1080)"><path d="M0 -702C80.5 -664.9 160.9 -627.9 248.4 -599.6C335.8 -571.3 430.2 -551.8 496.4 -496.4C562.6 -441 600.5 -349.7 630.1 -261C659.6 -172.3 680.8 -86.1 702 0L0 0Z" fill="#e3e0f7"></path><path d="M0 -526.5C60.3 -498.7 120.7 -470.9 186.3 -449.7C251.8 -428.5 322.7 -413.8 372.3 -372.3C421.9 -330.7 450.4 -262.3 472.6 -195.7C494.7 -129.2 510.6 -64.6 526.5 0L0 0Z" fill="#a9a6e6"></path><path d="M0 -351C40.2 -332.5 80.5 -313.9 124.2 -299.8C167.9 -285.7 215.1 -275.9 248.2 -248.2C281.3 -220.5 300.3 -174.9 315 -130.5C329.8 -86.1 340.4 -43.1 351 0L0 0Z" fill="#686fd4"></path><path d="M0 -175.5C20.1 -166.2 40.2 -157 62.1 -149.9C83.9 -142.8 107.6 -137.9 124.1 -124.1C140.6 -110.2 150.1 -87.4 157.5 -65.2C164.9 -43.1 170.2 -21.5 175.5 0L0 0Z" fill="#3c55cb"></path></g></svg>