<svg id="visual" viewBox="0 0 1920 1080" width="1920" height="1080" xmlns="http://www.w3.org/2000/svg" xmlns:xlink="http://www.w3.org/1999/xlink" version="1.1"><rect x="0" y="0" width="1920" height="1080" fill="#f4f4f4"></rect><defs><linearGradient id="grad1_0" x1="43.8%" y1="0%" x2="100%" y2="100%"><stop offset="14.444444444444446%" stop-color="#f4f4f4" stop-opacity="1"></stop><stop offset="85.55555555555554%" stop-color="#f4f4f4" stop-opacity="1"></stop></linearGradient></defs><defs><linearGradient id="grad2_0" x1="0%" y1="0%" x2="56.3%" y2="100%"><stop offset="14.444444444444446%" stop-color="#f4f4f4" stop-opacity="1"></stop><stop offset="85.55555555555554%" stop-color="#f4f4f4" stop-opacity="1"></stop></linearGradient></defs><g transform="translate(1920, 0)"><path d="M0 972C-98.8 887.3 -197.5 802.6 -317.2 765.9C-437 729.2 -577.7 740.3 -682.4 682.4C-787 624.4 -855.7 497.2 -898 372C-940.3 246.7 -956.1 123.4 -972 0L0 0Z" fill="#3c55cb"></path></g><g transform="translate(0, 1080)"><path d="M0 -972C102.3 -906.8 204.5 -841.6 334.5 -807.5C464.4 -773.3 622 -770.2 687.3 -687.3C752.6 -604.4 725.5 -441.7 757.6 -313.8C789.6 -185.9 880.8 -93 972 0L0 0Z" fill="#3c55cb"></path></g></svg>