<svg id="visual" viewBox="0 0 1920 1080" width="1920" height="1080" xmlns="http://www.w3.org/2000/svg" xmlns:xlink="http://www.w3.org/1999/xlink" version="1.1"><rect x="0" y="0" width="1920" height="1080" fill="#FFFFFF"></rect><defs><linearGradient id="grad1_0" x1="43.8%" y1="0%" x2="100%" y2="100%"><stop offset="14.444444444444446%" stop-color="#3c55cb" stop-opacity="1"></stop><stop offset="85.55555555555554%" stop-color="#3c55cb" stop-opacity="1"></stop></linearGradient></defs><defs><linearGradient id="grad1_1" x1="43.8%" y1="0%" x2="100%" y2="100%"><stop offset="14.444444444444446%" stop-color="#3c55cb" stop-opacity="1"></stop><stop offset="85.55555555555554%" stop-color="#8a8ade" stop-opacity="1"></stop></linearGradient></defs><defs><linearGradient id="grad1_2" x1="43.8%" y1="0%" x2="100%" y2="100%"><stop offset="14.444444444444446%" stop-color="#c7c3ef" stop-opacity="1"></stop><stop offset="85.55555555555554%" stop-color="#8a8ade" stop-opacity="1"></stop></linearGradient></defs><defs><linearGradient id="grad1_3" x1="43.8%" y1="0%" x2="100%" y2="100%"><stop offset="14.444444444444446%" stop-color="#c7c3ef" stop-opacity="1"></stop><stop offset="85.55555555555554%" stop-color="#ffffff" stop-opacity="1"></stop></linearGradient></defs><defs><linearGradient id="grad2_0" x1="0%" y1="0%" x2="56.3%" y2="100%"><stop offset="14.444444444444446%" stop-color="#3c55cb" stop-opacity="1"></stop><stop offset="85.55555555555554%" stop-color="#3c55cb" stop-opacity="1"></stop></linearGradient></defs><defs><linearGradient id="grad2_1" x1="0%" y1="0%" x2="56.3%" y2="100%"><stop offset="14.444444444444446%" stop-color="#8a8ade" stop-opacity="1"></stop><stop offset="85.55555555555554%" stop-color="#3c55cb" stop-opacity="1"></stop></linearGradient></defs><defs><linearGradient id="grad2_2" x1="0%" y1="0%" x2="56.3%" y2="100%"><stop offset="14.444444444444446%" stop-color="#8a8ade" stop-opacity="1"></stop><stop offset="85.55555555555554%" stop-color="#c7c3ef" stop-opacity="1"></stop></linearGradient></defs><defs><linearGradient id="grad2_3" x1="0%" y1="0%" x2="56.3%" y2="100%"><stop offset="14.444444444444446%" stop-color="#ffffff" stop-opacity="1"></stop><stop offset="85.55555555555554%" stop-color="#c7c3ef" stop-opacity="1"></stop></linearGradient></defs><g transform="translate(1920, 0)"><path d="M0 1080C-154.6 1075.1 -309.3 1070.3 -411 992.2C-512.7 914.2 -561.6 763 -663.3 663.3C-765 563.5 -919.5 515.3 -997.8 413.3C-1076.1 311.3 -1078 155.7 -1080 0L0 0Z" fill="#e3e0f7"></path><path d="M0 810C-116 806.4 -232 802.7 -308.3 744.2C-384.6 685.7 -421.2 572.3 -497.4 497.4C-573.7 422.6 -689.6 386.4 -748.3 310C-807 233.5 -808.5 116.7 -810 0L0 0Z" fill="#a9a6e6"></path><path d="M0 540C-77.3 537.6 -154.6 535.1 -205.5 496.1C-256.4 457.1 -280.8 381.5 -331.6 331.6C-382.5 281.8 -459.8 257.6 -498.9 206.6C-538 155.7 -539 77.8 -540 0L0 0Z" fill="#686fd4"></path><path d="M0 270C-38.7 268.8 -77.3 267.6 -102.8 248.1C-128.2 228.6 -140.4 190.8 -165.8 165.8C-191.2 140.9 -229.9 128.8 -249.4 103.3C-269 77.8 -269.5 38.9 -270 0L0 0Z" fill="#3c55cb"></path></g><g transform="translate(0, 1080)"><path d="M0 -1080C137 -1053.3 273.9 -1026.5 405.3 -978.4C536.6 -930.3 662.4 -860.7 763.7 -763.7C865 -666.6 941.8 -542.1 990.4 -410.2C1039 -278.4 1059.5 -139.2 1080 0L0 0Z" fill="#e3e0f7"></path><path d="M0 -810C102.7 -789.9 205.4 -769.9 303.9 -733.8C402.5 -697.7 496.8 -645.5 572.8 -572.8C648.7 -500 706.3 -406.6 742.8 -307.7C779.3 -208.8 794.6 -104.4 810 0L0 0Z" fill="#a9a6e6"></path><path d="M0 -540C68.5 -526.6 137 -513.3 202.6 -489.2C268.3 -465.1 331.2 -430.4 381.8 -381.8C432.5 -333.3 470.9 -271 495.2 -205.1C519.5 -139.2 529.8 -69.6 540 0L0 0Z" fill="#686fd4"></path><path d="M0 -270C34.2 -263.3 68.5 -256.6 101.3 -244.6C134.2 -232.6 165.6 -215.2 190.9 -190.9C216.2 -166.7 235.4 -135.5 247.6 -102.6C259.8 -69.6 264.9 -34.8 270 0L0 0Z" fill="#3c55cb"></path></g></svg>