<svg id="visual" viewBox="0 0 1920 1080" width="1920" height="1080" xmlns="http://www.w3.org/2000/svg" xmlns:xlink="http://www.w3.org/1999/xlink" version="1.1"><rect x="0" y="0" width="1920" height="1080" fill="#001220"></rect><defs><linearGradient id="grad1_0" x1="43.8%" y1="0%" x2="100%" y2="100%"><stop offset="14.444444444444446%" stop-color="#4044ed" stop-opacity="1"></stop><stop offset="85.55555555555554%" stop-color="#4044ed" stop-opacity="1"></stop></linearGradient></defs><defs><linearGradient id="grad1_1" x1="43.8%" y1="0%" x2="100%" y2="100%"><stop offset="14.444444444444446%" stop-color="#4044ed" stop-opacity="1"></stop><stop offset="85.55555555555554%" stop-color="#0042bd" stop-opacity="1"></stop></linearGradient></defs><defs><linearGradient id="grad1_2" x1="43.8%" y1="0%" x2="100%" y2="100%"><stop offset="14.444444444444446%" stop-color="#003688" stop-opacity="1"></stop><stop offset="85.55555555555554%" stop-color="#0042bd" stop-opacity="1"></stop></linearGradient></defs><defs><linearGradient id="grad1_3" x1="43.8%" y1="0%" x2="100%" y2="100%"><stop offset="14.444444444444446%" stop-color="#003688" stop-opacity="1"></stop><stop offset="85.55555555555554%" stop-color="#002552" stop-opacity="1"></stop></linearGradient></defs><defs><linearGradient id="grad1_4" x1="43.8%" y1="0%" x2="100%" y2="100%"><stop offset="14.444444444444446%" stop-color="#001220" stop-opacity="1"></stop><stop offset="85.55555555555554%" stop-color="#002552" stop-opacity="1"></stop></linearGradient></defs><defs><linearGradient id="grad2_0" x1="0%" y1="0%" x2="56.3%" y2="100%"><stop offset="14.444444444444446%" stop-color="#4044ed" stop-opacity="1"></stop><stop offset="85.55555555555554%" stop-color="#4044ed" stop-opacity="1"></stop></linearGradient></defs><defs><linearGradient id="grad2_1" x1="0%" y1="0%" x2="56.3%" y2="100%"><stop offset="14.444444444444446%" stop-color="#0042bd" stop-opacity="1"></stop><stop offset="85.55555555555554%" stop-color="#4044ed" stop-opacity="1"></stop></linearGradient></defs><defs><linearGradient id="grad2_2" x1="0%" y1="0%" x2="56.3%" y2="100%"><stop offset="14.444444444444446%" stop-color="#0042bd" stop-opacity="1"></stop><stop offset="85.55555555555554%" stop-color="#003688" stop-opacity="1"></stop></linearGradient></defs><defs><linearGradient id="grad2_3" x1="0%" y1="0%" x2="56.3%" y2="100%"><stop offset="14.444444444444446%" stop-color="#002552" stop-opacity="1"></stop><stop offset="85.55555555555554%" stop-color="#003688" stop-opacity="1"></stop></linearGradient></defs><defs><linearGradient id="grad2_4" x1="0%" y1="0%" x2="56.3%" y2="100%"><stop offset="14.444444444444446%" stop-color="#002552" stop-opacity="1"></stop><stop offset="85.55555555555554%" stop-color="#001220" stop-opacity="1"></stop></linearGradient></defs><g transform="translate(1920, 0)"><path d="M0 540C-53.3 487.5 -106.6 434.9 -171.1 413C-235.5 391 -311.1 399.6 -370.5 370.5C-430 341.4 -473.3 274.7 -498.9 206.6C-524.5 138.6 -532.2 69.3 -540 0L0 0Z" fill="#001c38"></path><path d="M0 432C-42.6 390 -85.3 348 -136.8 330.4C-188.4 312.8 -248.9 319.7 -296.4 296.4C-344 273.2 -378.7 219.7 -399.1 165.3C-419.6 110.9 -425.8 55.4 -432 0L0 0Z" fill="#002e6d"></path><path d="M0 324C-32 292.5 -64 261 -102.6 247.8C-141.3 234.6 -186.6 239.8 -222.3 222.3C-258 204.9 -284 164.8 -299.3 124C-314.7 83.2 -319.3 41.6 -324 0L0 0Z" fill="#003da3"></path><path d="M0 216C-21.3 195 -42.6 174 -68.4 165.2C-94.2 156.4 -124.4 159.8 -148.2 148.2C-172 136.6 -189.3 109.9 -199.6 82.7C-209.8 55.4 -212.9 27.7 -216 0L0 0Z" fill="#0045d6"></path><path d="M0 108C-10.7 97.5 -21.3 87 -34.2 82.6C-47.1 78.2 -62.2 79.9 -74.1 74.1C-86 68.3 -94.7 54.9 -99.8 41.3C-104.9 27.7 -106.4 13.9 -108 0L0 0Z" fill="#4044ed"></path></g><g transform="translate(0, 1080)"><path d="M0 -540C74.8 -536.2 149.7 -532.5 206.6 -498.9C263.6 -465.3 302.7 -401.9 350 -350C397.3 -298.1 452.9 -257.7 486 -201.3C519 -144.9 529.5 -72.4 540 0L0 0Z" fill="#001c38"></path><path d="M0 -432C59.9 -429 119.8 -426 165.3 -399.1C210.9 -372.3 242.2 -321.5 280 -280C317.9 -238.5 362.3 -206.2 388.8 -161C415.2 -115.9 423.6 -57.9 432 0L0 0Z" fill="#002e6d"></path><path d="M0 -324C44.9 -321.7 89.8 -319.5 124 -299.3C158.2 -279.2 181.6 -241.2 210 -210C238.4 -178.9 271.8 -154.6 291.6 -120.8C311.4 -86.9 317.7 -43.5 324 0L0 0Z" fill="#003da3"></path><path d="M0 -216C29.9 -214.5 59.9 -213 82.7 -199.6C105.4 -186.1 121.1 -160.8 140 -140C158.9 -119.2 181.2 -103.1 194.4 -80.5C207.6 -57.9 211.8 -29 216 0L0 0Z" fill="#0045d6"></path><path d="M0 -108C15 -107.2 29.9 -106.5 41.3 -99.8C52.7 -93.1 60.5 -80.4 70 -70C79.5 -59.6 90.6 -51.5 97.2 -40.3C103.8 -29 105.9 -14.5 108 0L0 0Z" fill="#4044ed"></path></g></svg>